<?xml version="1.0" encoding="utf-8"?>
<!-- Generator: Adobe Illustrator 21.0.0, SVG Export Plug-In . SVG Version: 6.00 Build 0)  -->
<svg version="1.1" id="Calque_1" xmlns="http://www.w3.org/2000/svg" xmlns:xlink="http://www.w3.org/1999/xlink" x="0px" y="0px"
	 viewBox="0 0 199 58.6" style="enable-background:new 0 0 199 58.6;" xml:space="preserve">
<style type="text/css">
	.st0{fill:#FFFFFF;}
	.st1{fill:#F8B900;}
</style>
<g>
	<path class="st0" d="M0,36.7V13.1h5v23.6H0z"/>
	<path class="st0" d="M22.1,32.1c-0.8,2.8-3.4,5.1-7.5,5.1c-4.5,0-8.4-3.2-8.4-8.6c0-5.2,3.9-8.5,8.1-8.5c5,0,8.1,3.1,8.1,8.3
		c0,0.7-0.1,1.4-0.1,1.5H11c0.1,1.8,1.8,3.1,3.7,3.1c1.8,0,2.8-0.8,3.3-2.1L22.1,32.1z M17.6,26.7c-0.1-1.2-0.9-2.7-3.3-2.7
		c-2.1,0-3.1,1.5-3.2,2.7H17.6z"/>
	<path class="st0" d="M26.5,31.4c0.1,1.1,0.8,2.2,2.5,2.2c1.3,0,1.9-0.7,1.9-1.4c0-0.6-0.4-1.1-1.6-1.3l-1.9-0.4
		c-3.5-0.7-4.8-2.7-4.8-5c0-3,2.6-5.4,6.2-5.4c4.7,0,6.3,2.9,6.5,4.8l-4.1,0.7c-0.1-1.1-0.8-2-2.3-2c-0.9,0-1.8,0.6-1.8,1.4
		c0,0.7,0.6,1.1,1.3,1.2l2.2,0.4c3.4,0.7,5,2.7,5,5.1c0,2.8-2.1,5.5-6.5,5.5c-5.1,0-6.7-3.3-6.8-5.1L26.5,31.4z"/>
	<path class="st0" d="M51.7,1.4c7,0,11,4,11,9.5c0,3.6-2.3,6.6-5.2,7.6c3.2,0.7,6.3,3.7,6.3,8.3c0,5.8-4.4,10-11.1,10H38.5V1.4H51.7
		z M50.5,15.6c2.7,0,4.5-1.4,4.5-3.8C55,9.5,53.4,8,50.4,8h-4.2v7.6H50.5z M51.1,30.3c3,0,4.9-1.6,4.9-4.1c0-2.4-1.8-4.1-4.9-4.1
		h-4.9v8.3H51.1z"/>
	<path class="st0" d="M69.5,0c2.5,0,4.5,2,4.5,4.4s-2,4.4-4.5,4.4c-2.4,0-4.4-2-4.4-4.4S67.1,0,69.5,0z M65.7,36.7V12h7.6v24.7H65.7
		z"/>
	<path class="st0" d="M81.9,36.2c0.5,2.4,2.5,4.1,5.3,4.1c3.8,0,6.1-1.8,6.1-6.3v-1.1c-0.9,1.3-3,2.8-6.6,2.8
		c-6.6,0-11.5-5.2-11.5-12c0-6.5,4.7-12.1,11.5-12.1c4,0,6.2,1.8,6.9,3.1V12h7.2v21.7c0,7.1-4,13.3-13.2,13.3
		c-7.1,0-11.6-4.4-12.3-8.8L81.9,36.2z M93.4,23.6c0-3.4-2.4-5.5-5.3-5.5s-5.3,2.1-5.3,5.5c0,3.4,2.3,5.5,5.3,5.5
		C91.2,29.1,93.4,27,93.4,23.6z"/>
	<path class="st0" d="M117.9,1.4c7,0,11,4,11,9.5c0,3.6-2.3,6.6-5.2,7.6c3.2,0.7,6.3,3.7,6.3,8.3c0,5.8-4.4,10-11.1,10h-14.2V1.4
		H117.9z M116.6,15.6c2.7,0,4.5-1.4,4.5-3.8c0-2.3-1.5-3.8-4.6-3.8h-4.2v7.6H116.6z M117.3,30.3c3,0,4.9-1.6,4.9-4.1
		c0-2.4-1.8-4.1-4.9-4.1h-4.9v8.3H117.3z"/>
	<path class="st0" d="M157.6,24.3c0,7.7-5.7,13.1-13.1,13.1c-7.4,0-13.1-5.5-13.1-13.1s5.8-13.1,13.1-13.1
		C151.9,11.3,157.6,16.7,157.6,24.3z M150.1,24.3c0-4.2-2.7-6.1-5.6-6.1c-2.8,0-5.6,1.9-5.6,6.1c0,4.1,2.7,6.2,5.6,6.2
		C147.4,30.5,150.1,28.5,150.1,24.3z"/>
	<path class="st0" d="M163.9,28.6c0.1,1.7,1.3,3.3,3.9,3.3c1.9,0,2.9-1,2.9-2.1c0-0.9-0.6-1.6-2.4-2l-2.8-0.6
		c-5.3-1.1-7.4-4.1-7.4-7.6c0-4.5,4-8.2,9.5-8.2c7.2,0,9.7,4.5,9.9,7.4l-6.3,1.1c-0.2-1.6-1.2-3-3.5-3c-1.4,0-2.7,0.8-2.7,2.1
		c0,1,0.8,1.6,1.9,1.8l3.3,0.6c5.1,1,7.6,4.1,7.6,7.8c0,4.2-3.2,8.4-9.9,8.4c-7.8,0-10.3-5-10.5-7.8L163.9,28.6z"/>
	<path class="st0" d="M185.1,28.6c0.1,1.7,1.3,3.3,3.9,3.3c1.9,0,2.9-1,2.9-2.1c0-0.9-0.6-1.6-2.4-2l-2.8-0.6
		c-5.3-1.1-7.4-4.1-7.4-7.6c0-4.5,4-8.2,9.5-8.2c7.2,0,9.7,4.5,9.9,7.4l-6.3,1.1c-0.2-1.6-1.2-3-3.5-3c-1.4,0-2.7,0.8-2.7,2.1
		c0,1,0.8,1.6,1.9,1.8l3.3,0.6c5.1,1,7.6,4.1,7.6,7.8c0,4.2-3.2,8.4-9.9,8.4c-7.8,0-10.3-5-10.5-7.8L185.1,28.6z"/>
</g>
<g>
	<path class="st1" d="M104.7,58.3V41.1h12.8V44h-9.3v3.8h8.7v2.9h-8.7v4.7h9.6v2.9H104.7z"/>
	<path class="st1" d="M119.1,58.3l4.5-6.4l-4.3-6.1h4l2.2,3.4l2.3-3.4h3.9l-4.2,5.9l4.6,6.6h-4.1l-2.5-3.9l-2.6,3.9H119.1z"/>
	<path class="st1" d="M139.8,45.8v2.6h-2.3v5c0,1,0,1.6,0.1,1.8s0.1,0.3,0.3,0.4c0.2,0.1,0.3,0.2,0.6,0.2c0.3,0,0.7-0.1,1.3-0.3
		l0.3,2.6c-0.8,0.3-1.6,0.5-2.6,0.5c-0.6,0-1.1-0.1-1.6-0.3c-0.5-0.2-0.8-0.5-1.1-0.8c-0.2-0.3-0.4-0.7-0.5-1.3
		c-0.1-0.4-0.1-1.2-0.1-2.3v-5.4h-1.5v-2.6h1.5v-2.5l3.3-1.9v4.4H139.8z"/>
	<path class="st1" d="M145.3,58.3H142V45.8h3.1v1.8c0.5-0.8,1-1.4,1.4-1.7s0.9-0.4,1.4-0.4c0.8,0,1.5,0.2,2.2,0.6l-1,2.9
		c-0.6-0.4-1.1-0.5-1.6-0.5c-0.5,0-0.9,0.1-1.2,0.4c-0.3,0.3-0.6,0.7-0.8,1.4c-0.2,0.7-0.3,2.1-0.3,4.2V58.3z"/>
	<path class="st1" d="M154,49.6l-3-0.5c0.3-1.2,0.9-2.1,1.7-2.7c0.8-0.6,2-0.9,3.7-0.9c1.5,0,2.6,0.2,3.3,0.5
		c0.7,0.3,1.2,0.8,1.5,1.3c0.3,0.5,0.4,1.5,0.4,3l0,3.9c0,1.1,0.1,1.9,0.2,2.4c0.1,0.5,0.3,1.1,0.6,1.7h-3.3c-0.1-0.2-0.2-0.5-0.3-1
		c-0.1-0.2-0.1-0.3-0.1-0.4c-0.6,0.5-1.2,1-1.8,1.2c-0.6,0.3-1.3,0.4-2.1,0.4c-1.3,0-2.3-0.3-3-1c-0.7-0.7-1.1-1.6-1.1-2.6
		c0-0.7,0.2-1.3,0.5-1.9c0.3-0.6,0.8-1,1.4-1.3c0.6-0.3,1.5-0.6,2.6-0.8c1.5-0.3,2.6-0.6,3.2-0.8v-0.3c0-0.6-0.2-1.1-0.5-1.4
		c-0.3-0.3-0.9-0.4-1.8-0.4c-0.6,0-1,0.1-1.4,0.3S154.2,49.1,154,49.6z M158.4,52.3c-0.4,0.1-1.1,0.3-2,0.5
		c-0.9,0.2-1.5,0.4-1.8,0.6c-0.4,0.3-0.6,0.7-0.6,1.2c0,0.5,0.2,0.9,0.5,1.2c0.3,0.3,0.8,0.5,1.3,0.5c0.6,0,1.2-0.2,1.7-0.6
		c0.4-0.3,0.7-0.7,0.8-1.1c0.1-0.3,0.1-0.8,0.1-1.6V52.3z"/>
	<path class="st1" d="M176.3,58.3h-3.3v-6.4c0-1.3-0.1-2.2-0.2-2.6s-0.4-0.7-0.7-0.9c-0.3-0.2-0.7-0.3-1.1-0.3
		c-0.6,0-1.1,0.2-1.5,0.5c-0.5,0.3-0.8,0.7-0.9,1.2c-0.2,0.5-0.3,1.5-0.3,2.9v5.7h-3.3V45.8h3.1v1.8c1.1-1.4,2.5-2.1,4.1-2.1
		c0.7,0,1.4,0.1,2,0.4c0.6,0.3,1.1,0.6,1.4,1c0.3,0.4,0.5,0.9,0.6,1.4c0.1,0.5,0.2,1.3,0.2,2.2V58.3z"/>
	<path class="st1" d="M186.8,54.3l3.3,0.6c-0.4,1.2-1.1,2.1-2,2.8c-0.9,0.6-2.1,0.9-3.4,0.9c-2.2,0-3.8-0.7-4.8-2.1
		c-0.8-1.1-1.2-2.6-1.2-4.3c0-2.1,0.5-3.7,1.6-4.9c1.1-1.2,2.5-1.8,4.1-1.8c1.9,0,3.3,0.6,4.4,1.8c1.1,1.2,1.6,3.1,1.5,5.6H182
		c0,1,0.3,1.7,0.8,2.3c0.5,0.5,1.1,0.8,1.9,0.8c0.5,0,1-0.1,1.3-0.4C186.4,55.4,186.7,55,186.8,54.3z M187,51c0-1-0.3-1.7-0.7-2.2
		c-0.5-0.5-1-0.7-1.7-0.7c-0.7,0-1.3,0.3-1.8,0.8c-0.5,0.5-0.7,1.2-0.7,2.1H187z"/>
	<path class="st1" d="M198.7,45.8v2.6h-2.3v5c0,1,0,1.6,0.1,1.8c0,0.2,0.1,0.3,0.3,0.4c0.2,0.1,0.3,0.2,0.6,0.2
		c0.3,0,0.7-0.1,1.3-0.3l0.3,2.6c-0.8,0.3-1.6,0.5-2.6,0.5c-0.6,0-1.1-0.1-1.6-0.3c-0.5-0.2-0.8-0.5-1.1-0.8
		c-0.2-0.3-0.4-0.7-0.5-1.3c-0.1-0.4-0.1-1.2-0.1-2.3v-5.4h-1.5v-2.6h1.5v-2.5l3.3-1.9v4.4H198.7z"/>
</g>
</svg>
